<?xml version="1.0" encoding="utf-8"?>
<!-- Svg Vector Icons : http://www.onlinewebfonts.com/icon -->
<!DOCTYPE svg PUBLIC "-//W3C//DTD SVG 1.1//EN" "http://www.w3.org/Graphics/SVG/1.1/DTD/svg11.dtd">
<svg version="1.1" xmlns="http://www.w3.org/2000/svg" xmlns:xlink="http://www.w3.org/1999/xlink" x="0px" y="0px" viewBox="0 0 1000 1000" enable-background="new 0 0 1000 1000" xml:space="preserve">
<metadata> Svg Vector Icons : http://www.onlinewebfonts.com/icon </metadata>
<g><g transform="translate(0.000000,512.000000) scale(0.100000,-0.100000)"><path d="M100,4725.1v-296.8h1001.4h1001.5l300.6-890.4l298.7-890.4h-649.1c-358.1,0-651-5.7-651-13.4c0-9.6,315.9-1034,702.7-2278.6l704.6-2265.2l2736.3,5.7l2736.3,3.8l810,2269.1L9900,2638l-616.6,9.6l-614.6,9.6L6708,3572.4c-1078,501.7-1966.5,913.4-1974.2,913.4s-139.8-356.2-296.8-788.9c-155.1-434.7-304.5-848.3-331.3-921l-46-128.3l-356.1,3.8l-354.2,5.7l-256.6,756.4c-139.8,415.5-319.8,947.8-400.2,1183.3l-145.5,425.1H1323.6H100V4725.1z M6168,3151.1l1062.7-494l-1252.3-5.7c-687.4-1.9-1254.2-1.9-1256.1,1.9c-13.4,13.4,348.5,990,365.7,990C5097.7,3643.3,5584,3421.1,6168,3151.1z M9023,2017.6c0-9.6-185.7-536.1-411.7-1171.9C8383.5,210,8119.2-532.9,8023.5-802.9l-176.2-494H5553.4h-2292l-40.2,130.2c-145.5,467.2-982.3,3157.5-990,3178.6c-7.7,17.2,677.9,23,3391.1,23C7548.6,2034.8,9023,2027.2,9023,2017.6z"/><path d="M3613.7-2445.8c-281.5-44-480.6-145.5-679.8-344.7c-298.7-296.8-411.7-708.5-306.4-1118.3c53.6-212.5,141.7-361.9,306.4-530.4c241.3-241.3,484.4-342.8,832.9-342.8c346.6,0,589.8,99.6,832.9,344.7c361.9,361.9,446.2,888.5,216.4,1357.6c-135.9,277.6-444.2,526.6-742.9,601.2C3922-2440.1,3732.4-2426.7,3613.7-2445.8z M3952.6-3081.6c118.7-34.5,248.9-147.4,312.1-273.8c49.8-97.6,57.4-132.1,57.4-266.2c0-135.9-7.7-168.5-57.4-258.5c-105.3-191.5-277.6-293-499.8-294.9c-113,0-157,9.6-243.2,51.7c-181.9,88.1-298.7,260.4-314,461.5c-23,279.6,145.5,517,419.4,593.6C3730.5-3039.4,3826.2-3043.3,3952.6-3081.6z"/><path d="M7146.5-2447.8c-455.7-68.9-850.2-430.8-967-888.5c-36.4-145.5-36.4-409.8,0-555.3c105.3-413.6,442.3-756.3,846.3-861.7c145.5-38.3,455.7-36.4,607,1.9c308.3,80.4,593.6,312.1,737.2,603.2c178.1,361.9,178.1,706.6,0,1068.5C8149.9-2633.5,7646.3-2375,7146.5-2447.8z M7583.1-3117.9c469.1-226,384.9-911.5-128.3-1043.6c-344.7-88.1-670.2,158.9-687.4,522.7c-7.7,116.8,0,153.2,44,248.9c57.5,128.3,120.6,201.1,231.7,266.1C7207.8-3026,7387.8-3026,7583.1-3117.9z"/></g></g>
</svg>